<svg width="20" height="20" viewBox="0 0 20 20" fill="none" xmlns="http://www.w3.org/2000/svg">
<path d="M14.1437 3.34932C13.9101 2.54966 13.177 2 12.3439 2L11.7427 2C10.8467 2 10.0758 2.634 9.90296 3.51321L8.85352 8.85006L9.15094 7.89102C9.39431 7.1063 10.1202 6.57143 10.9418 6.57143L14.2351 6.57143L15.6352 7.74347L16.8818 6.57143H16.4905C15.6574 6.57143 14.9242 6.02177 14.6907 5.22211L14.1437 3.34932Z" fill="url(#paint0_radial_13534_45195)"/>
<path d="M6.0492 16.6427C6.28017 17.4462 7.01519 17.9997 7.85121 17.9997H9.07497C10.0844 17.9997 10.9126 17.2006 10.9488 16.1918L11.1295 11.1426L10.842 12.0951C10.6031 12.8867 9.87385 13.4283 9.04701 13.4283L5.73383 13.4283L4.34959 12.5431L3.32812 13.4283H3.71324C4.54926 13.4283 5.28427 13.9818 5.51524 14.7853L6.0492 16.6427Z" fill="url(#paint1_radial_13534_45195)"/>
<path d="M12.2503 2H5.68785C3.81286 2 2.68787 4.39748 1.93788 6.79497C1.04933 9.63537 -0.113354 13.4342 3.25037 13.4342H6.11145C6.9435 13.4342 7.67548 12.8878 7.91125 12.0899C8.40466 10.4199 9.26493 7.52162 9.94109 5.31373C10.2857 4.18837 10.5728 3.22188 11.0134 2.62001C11.2604 2.28258 11.6721 2 12.2503 2Z" fill="url(#paint2_radial_13534_45195)"/>
<path d="M12.2503 2H5.68785C3.81286 2 2.68787 4.39748 1.93788 6.79497C1.04933 9.63537 -0.113354 13.4342 3.25037 13.4342H6.11145C6.9435 13.4342 7.67548 12.8878 7.91125 12.0899C8.40466 10.4199 9.26493 7.52162 9.94109 5.31373C10.2857 4.18837 10.5728 3.22188 11.0134 2.62001C11.2604 2.28258 11.6721 2 12.2503 2Z" fill="url(#paint3_linear_13534_45195)"/>
<path d="M7.74902 17.9997H14.3115C16.1865 17.9997 17.3114 15.603 18.0614 13.2063C18.95 10.3668 20.1127 6.56934 16.7489 6.56934H13.8877C13.0557 6.56934 12.3238 7.11559 12.088 7.91346C11.5946 9.58288 10.7343 12.48 10.0582 14.687C9.71358 15.812 9.42651 16.7782 8.98593 17.3799C8.73893 17.7172 8.32725 17.9997 7.74902 17.9997Z" fill="url(#paint4_radial_13534_45195)"/>
<path d="M7.74902 17.9997H14.3115C16.1865 17.9997 17.3114 15.603 18.0614 13.2063C18.95 10.3668 20.1127 6.56934 16.7489 6.56934H13.8877C13.0557 6.56934 12.3238 7.11559 12.088 7.91346C11.5946 9.58288 10.7343 12.48 10.0582 14.687C9.71358 15.812 9.42651 16.7782 8.98593 17.3799C8.73893 17.7172 8.32725 17.9997 7.74902 17.9997Z" fill="url(#paint5_linear_13534_45195)"/>
<defs>
<radialGradient id="paint0_radial_13534_45195" cx="0" cy="0" r="1" gradientTransform="matrix(-4.54964 -5.59008 -4.91213 4.68878 15.7128 8.89484)" gradientUnits="userSpaceOnUse">
<stop offset="0.0955758" stop-color="#00AEFF"/>
<stop offset="0.773185" stop-color="#2253CE"/>
<stop offset="1" stop-color="#0736C4"/>
</radialGradient>
<radialGradient id="paint1_radial_13534_45195" cx="0" cy="0" r="1" gradientTransform="matrix(4.0792 5.17125 4.81539 -4.22088 4.74347 13.4005)" gradientUnits="userSpaceOnUse">
<stop stop-color="#FFB657"/>
<stop offset="0.633728" stop-color="#FF5F3D"/>
<stop offset="0.923392" stop-color="#C02B3C"/>
</radialGradient>
<radialGradient id="paint2_radial_13534_45195" cx="0" cy="0" r="1" gradientTransform="matrix(-0.594541 -10.1312 58.8167 -3.23085 5.52522 13.4301)" gradientUnits="userSpaceOnUse">
<stop offset="0.03" stop-color="#FFC800"/>
<stop offset="0.31" stop-color="#98BD42"/>
<stop offset="0.49" stop-color="#52B471"/>
<stop offset="0.843838" stop-color="#0D91E1"/>
</radialGradient>
<linearGradient id="paint3_linear_13534_45195" x1="6.11337" y1="2" x2="6.59201" y2="13.4355" gradientUnits="userSpaceOnUse">
<stop stop-color="#3DCBFF"/>
<stop offset="0.246674" stop-color="#0588F7" stop-opacity="0"/>
</linearGradient>
<radialGradient id="paint4_radial_13534_45195" cx="0" cy="0" r="1" gradientTransform="matrix(-5.18438 14.3365 -17.6444 -6.32742 17.0861 5.45023)" gradientUnits="userSpaceOnUse">
<stop offset="0.0661714" stop-color="#8C48FF"/>
<stop offset="0.5" stop-color="#F2598A"/>
<stop offset="0.895833" stop-color="#FFB152"/>
</radialGradient>
<linearGradient id="paint5_linear_13534_45195" x1="17.6045" y1="5.87149" x2="17.5982" y2="8.9847" gradientUnits="userSpaceOnUse">
<stop offset="0.0581535" stop-color="#F8ADFA"/>
<stop offset="0.708063" stop-color="#A86EDD" stop-opacity="0"/>
</linearGradient>
</defs>
</svg>
